<svg width="22" height="23" viewBox="0 0 22 23" fill="none" xmlns="http://www.w3.org/2000/svg">
  <path d="M5.5 14.25C7.01878 14.25 8.25 13.0188 8.25 11.5C8.25 9.98122 7.01878 8.75 5.5 8.75C3.98122 8.75 2.75 9.98122 2.75 11.5C2.75 13.0188 3.98122 14.25 5.5 14.25Z" stroke="#49536E" stroke-width="2" stroke-linecap="round" stroke-linejoin="round"/>
  <path d="M15.125 20.4375C16.6438 20.4375 17.875 19.2063 17.875 17.6875C17.875 16.1687 16.6438 14.9375 15.125 14.9375C13.6062 14.9375 12.375 16.1687 12.375 17.6875C12.375 19.2063 13.6062 20.4375 15.125 20.4375Z" stroke="#49536E" stroke-width="2" stroke-linecap="round" stroke-linejoin="round"/>
  <path d="M15.125 8.0625C16.6438 8.0625 17.875 6.83128 17.875 5.3125C17.875 3.79372 16.6438 2.5625 15.125 2.5625C13.6062 2.5625 12.375 3.79372 12.375 5.3125C12.375 6.83128 13.6062 8.0625 15.125 8.0625Z" stroke="#49536E" stroke-width="2" stroke-linecap="round" stroke-linejoin="round"/>
  <path d="M12.8135 6.79926L7.81189 10.0133" stroke="#49536E" stroke-width="2" stroke-linecap="round" stroke-linejoin="round"/>
  <path d="M7.81189 12.9868L12.8135 16.2008" stroke="#49536E" stroke-width="2" stroke-linecap="round" stroke-linejoin="round"/>
</svg>
