<svg width="21" height="38" viewBox="0 0 21 38" fill="none" xmlns="http://www.w3.org/2000/svg">
<path fill-rule="evenodd" clip-rule="evenodd" d="M18.271 9.88591C19.3521 8.74033 19.9698 7.17462 19.8562 5.49031C19.6377 2.24998 16.7956 -0.20221 13.5082 0.0131685C11.7994 0.125121 10.3066 0.935799 9.29774 2.14365L9.29549 2.14172L1.4371 10.9906L1.43753 10.9909C0.456618 12.1181 -0.0944571 13.6101 0.0133601 15.2089C0.124054 16.8504 0.908024 18.2896 2.08208 19.2823L2.08167 19.2828L6.52228 23.1142L10.3142 18.8444C10.3481 18.8088 10.3815 18.7728 10.4145 18.7364L10.4145 18.7364L10.4178 18.7327C10.4424 18.7056 10.4666 18.6783 10.4906 18.6508L18.2729 9.88756L18.271 9.88591Z" fill="url(#paint0_linear_720_5256)" fill-opacity="0.9"/>
<path fill-rule="evenodd" clip-rule="evenodd" d="M14.3838 14.2673L18.8725 18.1402L18.8716 18.1412C20.0714 19.135 20.8746 20.5904 20.9867 22.2534C21.0988 23.9162 20.4983 25.4634 19.4427 26.6049L19.4433 26.6055L15.5983 30.9351L11.3313 27.2534C11.2227 27.1687 11.1172 27.0802 11.0149 26.9883L11.0141 26.9891L6.52539 23.1162L14.3838 14.2673Z" fill="url(#paint1_linear_720_5256)" fill-opacity="0.9"/>
<path fill-rule="evenodd" clip-rule="evenodd" d="M15.6022 30.9425L6.52855 23.1138L2.06046 28.145L2.07731 28.1595C1.06264 29.3019 0.490157 30.826 0.600393 32.4608C0.820855 35.73 3.68832 38.204 7.00508 37.9866C8.70455 37.8755 10.1922 37.0789 11.2093 35.8891L15.6022 30.9425Z" fill="url(#paint2_linear_720_5256)"/>
<defs>
<linearGradient id="paint0_linear_720_5256" x1="13.9614" y1="1.9829" x2="7.73504" y2="19.7164" gradientUnits="userSpaceOnUse">
<stop stop-color="#6D50E9"/>
<stop offset="1" stop-color="#4040CE"/>
</linearGradient>
<linearGradient id="paint1_linear_720_5256" x1="13.4551" y1="18.2218" x2="11.7927" y2="29.2852" gradientUnits="userSpaceOnUse">
<stop stop-color="#506DEC"/>
<stop offset="1" stop-color="#4C5FD2"/>
</linearGradient>
<linearGradient id="paint2_linear_720_5256" x1="7.27083" y1="23.7208" x2="5.47736" y2="35.9511" gradientUnits="userSpaceOnUse">
<stop stop-color="#7CC7FF"/>
<stop offset="1" stop-color="#79B7FF"/>
</linearGradient>
</defs>
</svg>
