<svg width="117" height="50" viewBox="0 0 117 50" fill="none" xmlns="http://www.w3.org/2000/svg">
<path d="M33.9207 15.6942C34.9643 14.773 36.6011 15.121 37.1796 16.387L39.8735 22.282C40.5817 23.8318 39.2225 25.527 37.5559 25.1727L30.0031 23.5671C28.3365 23.2127 27.7844 21.1112 29.0618 19.9836L33.9207 15.6942Z" fill="#56E39F"/>
<path d="M35.2799 28.8763C36.7737 29.1939 37.7526 30.6808 37.1357 32.0779C36.8 32.838 36.3936 33.567 35.9207 34.255C34.924 35.7052 33.6514 36.9449 32.1755 37.9032C30.6997 38.8616 29.0495 39.5199 27.3193 39.8405C25.5891 40.1611 23.8126 40.1378 22.0914 39.7719C20.3702 39.406 18.7378 38.7047 17.2877 37.7079C15.8375 36.7112 14.5978 35.4386 13.6395 33.9627C12.6811 32.4869 12.0228 30.8368 11.7022 29.1065C11.5501 28.2856 11.4754 27.4543 11.4779 26.6234C11.4827 25.0962 12.9818 24.136 14.4756 24.4536L24.8777 26.665L35.2799 28.8763Z" fill="#4C67F4"/>
<circle cx="19.0732" cy="16.1159" r="6.8857" transform="rotate(12.0016 19.0732 16.1159)" fill="#4C67F4"/>
<path d="M64.6953 28.8943C64.6953 30.195 64.4398 31.3796 63.9288 32.4481C63.441 33.4933 62.7674 34.3991 61.908 35.1657C61.0718 35.9322 60.0731 36.5245 58.9117 36.9425C57.7736 37.3606 56.5425 37.5697 55.2186 37.5697C54.2895 37.5697 53.3604 37.3258 52.4313 36.838C51.5022 36.327 50.6079 35.5257 49.7485 34.434L52.3268 29.382C52.4893 29.684 52.7332 29.9976 53.0584 30.3227C53.3836 30.6247 53.7436 30.8918 54.1385 31.1241C54.5566 31.3564 54.9631 31.5538 55.3579 31.7164C55.776 31.8558 56.1477 31.9254 56.4728 31.9254C56.7516 31.9254 57.0419 31.879 57.3439 31.7861C57.6458 31.6932 57.9245 31.5538 58.18 31.368C58.4355 31.1822 58.633 30.9731 58.7723 30.7408C58.9349 30.4853 59.0162 30.195 59.0162 29.8698C59.0162 29.3124 58.8304 28.8014 58.4588 28.3368C58.1104 27.849 57.669 27.3961 57.1348 26.978C56.6006 26.5367 56.0199 26.0954 55.3928 25.6541C54.7656 25.2127 54.1849 24.7482 53.6507 24.2604C53.1397 23.7726 52.6984 23.2268 52.3268 22.6229C51.9551 22.019 51.7693 21.3454 51.7693 20.6021C51.7693 19.3943 52.1293 18.2678 52.8494 17.2225C53.5694 16.1773 54.4637 15.283 55.5321 14.5398C56.6238 13.7733 57.8084 13.1694 59.0859 12.728C60.3634 12.2867 61.5712 12.0661 62.7094 12.0661C63.3365 12.0661 63.9288 12.1474 64.4863 12.3099C65.0437 12.4493 65.5199 12.6932 65.9147 13.0416C66.3328 13.3668 66.658 13.7849 66.8903 14.2959C67.1458 14.8069 67.2735 15.4456 67.2735 16.2121C67.2735 16.5373 67.2387 16.8625 67.169 17.1877C67.1226 17.5129 67.0761 17.8613 67.0297 18.2329L61.9777 19.6962C62.0242 19.5104 62.059 19.3246 62.0822 19.1388C62.1287 18.953 62.1519 18.7671 62.1519 18.5813C62.1519 17.8845 62.0242 17.3851 61.7687 17.0832C61.5364 16.758 61.2228 16.5954 60.828 16.5954C60.6421 16.5954 60.4099 16.6651 60.1311 16.8044C59.8756 16.9438 59.6085 17.1296 59.3298 17.3619C59.0743 17.5709 58.8536 17.8264 58.6678 18.1284C58.482 18.4303 58.3891 18.7555 58.3891 19.1039C58.3891 19.6614 58.5401 20.1259 58.842 20.4976C59.1672 20.8692 59.5621 21.2176 60.0266 21.5428C60.4912 21.868 60.9906 22.2048 61.5248 22.5532C62.0822 22.8784 62.5932 23.3081 63.0578 23.8423C63.5223 24.3765 63.9056 25.0501 64.2075 25.8631C64.5327 26.6528 64.6953 27.6632 64.6953 28.8943ZM64.127 37.5348C64.8238 34.3991 65.4858 31.3331 66.1129 28.3368C66.3684 27.0825 66.6355 25.7586 66.9143 24.3649C67.193 22.9713 67.4601 21.6009 67.7156 20.2537C67.9711 18.9065 68.215 17.6058 68.4473 16.3515C68.6795 15.0972 68.877 13.9475 69.0396 12.9022C69.7131 12.6932 70.3751 12.519 71.0255 12.3796C71.6759 12.217 72.3378 12.0777 73.0114 11.9615C73.7082 11.8454 74.3586 11.7873 74.9625 11.7873C76.0078 11.7873 76.8788 11.9615 77.5756 12.3099C78.2957 12.6584 78.8763 13.1345 79.3177 13.7384C79.759 14.3191 80.0725 15.0043 80.2584 15.794C80.4442 16.5838 80.5371 17.4316 80.5371 18.3374C80.5371 19.6382 80.2932 20.8924 79.8054 22.1003C79.3409 23.3081 78.7021 24.3882 77.8892 25.3405C77.0994 26.2696 76.182 27.0129 75.1367 27.5703C74.1147 28.1278 73.0463 28.4065 71.9314 28.4065H71.5481C71.3623 29.1962 71.1881 30.0556 71.0255 30.9847C70.8629 31.9138 70.7235 32.7732 70.6074 33.563C70.4448 34.4921 70.2938 35.4212 70.1545 36.3502L64.127 37.5348ZM73.8476 16.0031C73.5921 17.5361 73.3366 18.9878 73.0811 20.3582C72.8256 21.7286 72.5469 23.192 72.2449 24.7482C72.6166 24.6553 72.9998 24.4462 73.3947 24.121C73.8128 23.7726 74.196 23.3313 74.5444 22.7971C74.8928 22.2396 75.1716 21.6009 75.3806 20.8808C75.5897 20.1608 75.6942 19.4059 75.6942 18.6162C75.6942 17.7568 75.4968 17.1064 75.1019 16.6651C74.7303 16.2237 74.3122 16.0031 73.8476 16.0031ZM87.0491 36.3851C86.329 36.3851 85.5625 36.4083 84.7496 36.4548C83.9599 36.5012 83.1585 36.5709 82.3456 36.6638C81.5326 36.7567 80.7313 36.8845 79.9415 37.0471C79.175 37.1864 78.4782 37.3606 77.8511 37.5697C77.9904 36.5245 78.153 35.3631 78.3388 34.0856C78.5247 32.8081 78.7337 31.4841 78.966 30.1137C79.2215 28.7433 79.4654 27.3613 79.6976 25.9676C79.9531 24.574 80.2086 23.2384 80.4641 21.9609C81.0448 18.9181 81.6603 15.8173 82.3107 12.6584L88.4079 11.857C87.7808 14.5514 87.1768 17.1761 86.5962 19.7311C86.3407 20.8228 86.0852 21.9609 85.8297 23.1455C85.5742 24.3069 85.3303 25.445 85.098 26.5599C84.8657 27.6748 84.6567 28.7549 84.4709 29.8001C84.285 30.8454 84.1341 31.7745 84.0179 32.5874C84.5986 32.541 85.2141 32.5177 85.8645 32.5177C86.5381 32.4945 87.1304 32.4829 87.6414 32.4829C87.6646 32.9242 87.6995 33.3655 87.7459 33.8069C87.7924 34.2249 87.8388 34.6082 87.8853 34.9566C87.955 35.305 88.0014 35.6186 88.0246 35.8973C88.0711 36.1528 88.1059 36.327 88.1292 36.4199C87.9433 36.4199 87.7575 36.4199 87.5717 36.4199C87.4091 36.3967 87.2349 36.3851 87.0491 36.3851ZM88.792 36.9774L90.3946 29.9743C90.3946 28.9756 90.3714 27.8955 90.325 26.7341C90.3017 25.5495 90.2553 24.3649 90.1856 23.1803C90.1159 21.9957 90.0462 20.8576 89.9766 19.7659C89.9069 18.651 89.8488 17.6755 89.8024 16.8393C89.7559 15.9799 89.7094 15.2947 89.663 14.7837C89.6165 14.2727 89.5933 14.0172 89.5933 14.0172L95.2724 11.857V16.1076C95.2724 16.6883 95.2724 17.2806 95.2724 17.8845C95.2724 18.4884 95.2608 19.0807 95.2376 19.6614C95.2376 20.2421 95.2376 20.7879 95.2376 21.2989C95.2376 21.8099 95.2376 22.2396 95.2376 22.588C95.5395 21.7983 95.8995 20.8228 96.3176 19.6614C96.7589 18.5 97.1654 17.3735 97.5371 16.2818C97.9784 15.0043 98.4313 13.6571 98.8959 12.2403L104.296 13.4597C103.297 15.4572 102.322 17.4432 101.37 19.4175C100.975 20.2769 100.557 21.1712 100.115 22.1003C99.674 23.0061 99.2327 23.9236 98.7913 24.8527C98.35 25.7586 97.9203 26.6412 97.5022 27.5006C97.0841 28.36 96.7009 29.1614 96.3525 29.9047C96.2363 30.5086 96.0853 31.1705 95.8995 31.8906C95.7369 32.6106 95.5743 33.2959 95.4118 33.9462C95.2027 34.7127 94.982 35.4792 94.7498 36.2457L88.792 36.9774ZM102.616 37.5348C103.151 34.9798 103.662 32.4597 104.15 29.9743C104.359 28.9291 104.568 27.8374 104.777 26.6993C104.986 25.5611 105.183 24.4462 105.369 23.3545C105.578 22.2396 105.752 21.1712 105.892 20.1492C106.054 19.1039 106.194 18.1516 106.31 17.2922C105.775 17.2225 105.23 17.1993 104.672 17.2225C104.138 17.2458 103.604 17.1761 103.069 17.0135C103.093 16.6418 103.104 16.2121 103.104 15.7244C103.104 15.2366 103.116 14.7488 103.139 14.261C103.162 13.7268 103.186 13.1577 103.209 12.5538C103.813 12.6003 104.417 12.6351 105.021 12.6584C105.624 12.6816 106.228 12.6932 106.832 12.6932C108.017 12.6932 109.155 12.67 110.247 12.6235C111.362 12.5538 112.384 12.4841 113.313 12.4145C114.265 12.3216 115.194 12.217 116.1 12.1009L115.717 13.9823C115.601 14.5165 115.484 15.0624 115.368 15.6198C115.275 16.1773 115.182 16.6535 115.09 17.0483C114.579 17.1877 114.056 17.2922 113.522 17.3619C113.011 17.4083 112.5 17.478 111.989 17.5709C111.826 18.3607 111.652 19.2433 111.466 20.2189C111.28 21.1712 111.094 22.17 110.909 23.2152C110.746 24.2372 110.583 25.2824 110.421 26.3509C110.258 27.4193 110.096 28.4413 109.933 29.4169C109.561 31.7164 109.213 34.0972 108.888 36.5593L102.616 37.5348Z" fill="#4C67F4"/>
</svg>
