<svg width="24" height="25" viewBox="0 0 24 25" fill="none" xmlns="http://www.w3.org/2000/svg">
  <path d="M12 21.5C16.9706 21.5 21 17.4706 21 12.5C21 7.52944 16.9706 3.5 12 3.5C7.02944 3.5 3 7.52944 3 12.5C3 17.4706 7.02944 21.5 12 21.5Z" stroke="#49536E" stroke-width="2" stroke-miterlimit="10"/>
  <path d="M3.51562 9.5H20.4844" stroke="#49536E" stroke-width="2" stroke-linecap="round" stroke-linejoin="round"/>
  <path d="M3.51562 15.5H20.4844" stroke="#49536E" stroke-width="2" stroke-linecap="round" stroke-linejoin="round"/>
  <path d="M12 21.2561C14.0711 21.2561 15.75 17.3358 15.75 12.4998C15.75 7.6639 14.0711 3.74359 12 3.74359C9.92893 3.74359 8.25 7.6639 8.25 12.4998C8.25 17.3358 9.92893 21.2561 12 21.2561Z" stroke="#49536E" stroke-width="2" stroke-miterlimit="10"/>
</svg>
